<svg width="444" height="368" viewBox="0 0 444 368" fill="none" xmlns="http://www.w3.org/2000/svg">
<g clip-path="url(#clip0)">
<path d="M127.671 30.4506C127.671 32.8898 129.64 34.9355 132.161 34.9355C134.603 34.9355 136.651 32.9684 136.651 30.4506C136.651 28.0114 134.682 25.9656 132.161 25.9656C129.719 25.9656 127.671 27.9327 127.671 30.4506Z" fill="#F8AEB0"/>
<path d="M105.062 68.3762C105.062 70.8154 107.11 72.8612 109.552 72.8612C111.994 72.8612 114.042 70.8941 114.042 68.3762C114.042 65.937 112.073 63.8912 109.552 63.8912C107.11 63.8912 105.062 65.937 105.062 68.3762Z" fill="#F8AEB0"/>
<path d="M161.466 51.459C161.466 53.8982 163.514 55.944 165.956 55.944C168.398 55.944 170.446 53.9769 170.446 51.459C170.446 49.0198 168.477 46.9741 165.956 46.9741C163.514 46.9741 161.466 48.9412 161.466 51.459Z" fill="#F8AEB0"/>
<path d="M191.007 51.459C191.007 53.8982 193.055 55.944 195.497 55.944C197.939 55.944 199.987 53.9769 199.987 51.459C199.987 49.0198 197.939 46.9741 195.497 46.9741C192.976 46.9741 191.007 48.9412 191.007 51.459Z" fill="#F8AEB0"/>
<path d="M255.761 45.0073C255.761 47.4465 257.73 49.4923 260.251 49.4923C262.693 49.4923 264.741 47.4465 264.741 45.0073C264.741 42.5681 262.772 40.5223 260.251 40.5223C257.73 40.5223 255.761 42.5681 255.761 45.0073Z" fill="#F8AEB0"/>
<path d="M289.083 42.4894C289.083 44.9286 291.131 46.9744 293.573 46.9744C296.015 46.9744 298.064 45.0073 298.064 42.4894C298.064 40.0502 296.094 38.0044 293.573 38.0044C291.131 38.0044 289.083 39.9715 289.083 42.4894Z" fill="#F8AEB0"/>
<path d="M300.033 74.5138C300.033 76.953 302.081 78.9987 304.523 78.9987C306.965 78.9987 309.014 77.0316 309.014 74.5138C309.014 72.0746 306.965 70.0288 304.523 70.0288C302.002 70.0288 300.033 71.9959 300.033 74.5138Z" fill="#F8AEB0"/>
<path d="M267.105 76.0871C267.105 78.5263 269.074 80.5721 271.595 80.5721C274.037 80.5721 276.085 78.605 276.085 76.0871C276.085 73.6479 274.116 71.6021 271.595 71.6021C269.074 71.6021 267.105 73.5692 267.105 76.0871Z" fill="#F8AEB0"/>
<path d="M245.599 97.3318C245.599 99.771 247.647 101.817 250.089 101.817C252.531 101.817 254.579 99.8497 254.579 97.3318C254.579 94.8926 252.531 92.8469 250.089 92.8469C247.647 92.8469 245.599 94.814 245.599 97.3318Z" fill="#F8AEB0"/>
<path d="M335.876 42.4894C335.876 44.9286 337.924 46.9744 340.366 46.9744C342.808 46.9744 344.857 45.0073 344.857 42.4894C344.857 40.0502 342.808 38.0044 340.366 38.0044C337.924 38.0044 335.876 39.9715 335.876 42.4894Z" fill="#F8AEB0"/>
<path d="M346.196 67.9041C346.196 70.3433 348.244 72.3891 350.686 72.3891C353.128 72.3891 355.176 70.422 355.176 67.9041C355.176 65.4649 353.128 63.4192 350.686 63.4192C348.165 63.4192 346.196 65.3863 346.196 67.9041Z" fill="#F8AEB0"/>
<path d="M360.927 113.856C360.927 116.295 362.896 118.341 365.417 118.341C367.859 118.341 369.908 116.295 369.908 113.856C369.908 111.417 367.938 109.371 365.417 109.371C362.896 109.371 360.927 111.417 360.927 113.856Z" fill="#F8AEB0"/>
<path d="M384.087 106.302C384.087 108.741 386.057 110.787 388.578 110.787C391.02 110.787 393.068 108.82 393.068 106.302C393.068 103.863 391.098 101.817 388.578 101.817C386.057 101.817 384.087 103.784 384.087 106.302Z" fill="#F8AEB0"/>
<path d="M329.18 95.601C329.18 98.0402 331.15 100.086 333.67 100.086C336.113 100.086 338.161 98.0402 338.161 95.601C338.161 93.1618 336.191 91.116 333.67 91.116C331.15 91.116 329.18 93.1618 329.18 95.601Z" fill="#F8AEB0"/>
<path d="M371.483 80.5721C371.483 83.0113 373.452 85.0571 375.973 85.0571C378.415 85.0571 380.464 83.09 380.464 80.5721C380.464 78.1329 378.494 76.0872 375.973 76.0872C373.531 76.0872 371.483 78.0543 371.483 80.5721Z" fill="#F8AEB0"/>
<path d="M195.497 85.0572C195.497 87.4964 197.466 89.5421 199.987 89.5421C202.429 89.5421 204.478 87.575 204.478 85.0572C204.478 82.618 202.508 80.5722 199.987 80.5722C197.466 80.5722 195.497 82.5393 195.497 85.0572Z" fill="#F8AEB0"/>
<path d="M152.485 85.0572C152.485 87.4964 154.533 89.5421 156.975 89.5421C159.417 89.5421 161.466 87.575 161.466 85.0572C161.466 82.618 159.417 80.5722 156.975 80.5722C154.533 80.5722 152.485 82.5393 152.485 85.0572Z" fill="#F8AEB0"/>
<path d="M121.763 92.8468C121.763 95.286 123.811 97.3318 126.253 97.3318C128.695 97.3318 130.743 95.286 130.743 92.8468C130.743 90.4076 128.695 88.3618 126.253 88.3618C123.732 88.3618 121.763 90.3289 121.763 92.8468Z" fill="#F8AEB0"/>
<path d="M83.8712 95.601C83.8712 98.0402 85.8406 100.086 88.3614 100.086C90.8035 100.086 92.8516 98.0402 92.8516 95.601C92.8516 93.1618 90.8822 91.116 88.3614 91.116C85.9193 91.116 83.8712 93.1618 83.8712 95.601Z" fill="#F8AEB0"/>
<path d="M117.272 122.825C117.272 125.264 119.32 127.31 121.762 127.31C124.205 127.31 126.253 125.343 126.253 122.825C126.253 120.386 124.283 118.34 121.762 118.34C119.242 118.34 117.272 120.386 117.272 122.825Z" fill="#F8AEB0"/>
<path d="M156.975 130.851C156.975 133.29 158.945 135.336 161.466 135.336C163.908 135.336 165.956 133.369 165.956 130.851C165.956 128.412 163.987 126.366 161.466 126.366C159.024 126.366 156.975 128.333 156.975 130.851Z" fill="#F8AEB0"/>
<path d="M173.991 137.225C173.991 139.664 176.039 141.71 178.481 141.71C180.923 141.71 182.972 139.742 182.972 137.225C182.972 134.785 180.923 132.74 178.481 132.74C176.039 132.74 173.991 134.785 173.991 137.225Z" fill="#F8AEB0"/>
<path d="M235.358 118.34C235.358 120.78 237.406 122.825 239.848 122.825C242.29 122.825 244.338 120.858 244.338 118.34C244.338 115.901 242.29 113.855 239.848 113.855C237.327 113.855 235.358 115.901 235.358 118.34Z" fill="#F8AEB0"/>
<path d="M276.085 112.596C276.085 115.036 278.133 117.081 280.575 117.081C283.017 117.081 285.065 115.114 285.065 112.596C285.065 110.157 283.017 108.112 280.575 108.112C278.054 108.112 276.085 110.079 276.085 112.596Z" fill="#F8AEB0"/>
<path d="M293.573 128.255C293.573 130.694 295.622 132.739 298.064 132.739C300.506 132.739 302.554 130.772 302.554 128.255C302.554 125.815 300.506 123.77 298.064 123.77C295.622 123.77 293.573 125.815 293.573 128.255Z" fill="#F8AEB0"/>
<path d="M340.366 125.107C340.366 127.547 342.415 129.592 344.857 129.592C347.299 129.592 349.347 127.625 349.347 125.107C349.347 122.668 347.299 120.622 344.857 120.622C342.415 120.622 340.366 122.59 340.366 125.107Z" fill="#F8AEB0"/>
<path d="M326.896 146.195C326.896 148.634 328.865 150.68 331.386 150.68C333.828 150.68 335.876 148.634 335.876 146.195C335.876 143.755 333.907 141.71 331.386 141.71C328.944 141.71 326.896 143.755 326.896 146.195Z" fill="#F8AEB0"/>
<path d="M362.503 155.165C362.503 157.604 364.551 159.65 366.993 159.65C369.435 159.65 371.483 157.683 371.483 155.165C371.483 152.725 369.435 150.68 366.993 150.68C364.551 150.68 362.503 152.725 362.503 155.165Z" fill="#F8AEB0"/>
<path d="M382.039 150.68C382.039 153.119 384.087 155.165 386.529 155.165C388.971 155.165 391.02 153.198 391.02 150.68C391.02 148.24 389.05 146.195 386.529 146.195C384.087 146.195 382.039 148.24 382.039 150.68Z" fill="#F8AEB0"/>
<path d="M391.02 187.189C391.02 189.628 393.068 191.674 395.51 191.674C397.952 191.674 400 189.707 400 187.189C400 184.749 397.952 182.704 395.51 182.704C393.068 182.704 391.02 184.749 391.02 187.189Z" fill="#F8AEB0"/>
<path d="M347.456 184.986C347.456 187.425 349.426 189.471 351.946 189.471C354.389 189.471 356.437 187.504 356.437 184.986C356.437 182.547 354.467 180.501 351.946 180.501C349.426 180.501 347.456 182.468 347.456 184.986Z" fill="#F8AEB0"/>
<path d="M375.973 213.469C375.973 215.908 378.021 217.954 380.463 217.954C382.906 217.954 384.954 215.987 384.954 213.469C384.954 211.03 382.984 208.984 380.463 208.984C378.021 208.984 375.973 210.951 375.973 213.469Z" fill="#F8AEB0"/>
<path d="M81.9805 135.336C81.9805 137.775 83.9499 139.821 86.4707 139.821C88.9128 139.821 90.961 137.854 90.961 135.336C90.961 132.897 88.9916 130.851 86.4707 130.851C83.9499 130.851 81.9805 132.818 81.9805 135.336Z" fill="#F8AEB0"/>
<path d="M73 157.761C73 160.2 75.0482 162.246 77.4902 162.246C79.9323 162.246 81.9805 160.279 81.9805 157.761C81.9805 155.322 79.9323 153.276 77.4902 153.276C75.0482 153.276 73 155.243 73 157.761Z" fill="#F8AEB0"/>
<path d="M81.9805 198.755C81.9805 201.195 83.9499 203.24 86.4707 203.24C88.9128 203.24 90.961 201.195 90.961 198.755C90.961 196.316 88.9916 194.27 86.4707 194.27C83.9499 194.27 81.9805 196.237 81.9805 198.755Z" fill="#F8AEB0"/>
<path d="M99.3112 178.219C99.3112 180.658 101.359 182.704 103.801 182.704C106.244 182.704 108.292 180.658 108.292 178.219C108.292 175.78 106.244 173.734 103.801 173.734C101.281 173.734 99.3112 175.78 99.3112 178.219Z" fill="#F8AEB0"/>
<path d="M132.318 180.501C132.318 182.94 134.367 184.986 136.809 184.986C139.251 184.986 141.299 182.94 141.299 180.501C141.299 178.061 139.251 176.016 136.809 176.016C134.288 176.016 132.318 177.983 132.318 180.501Z" fill="#F8AEB0"/>
<path d="M151.067 159.649C151.067 162.088 153.115 164.134 155.557 164.134C158 164.134 160.048 162.167 160.048 159.649C160.048 157.21 158 155.164 155.557 155.164C153.115 155.164 151.067 157.21 151.067 159.649Z" fill="#F8AEB0"/>
<path d="M184.783 176.016C184.783 178.455 186.753 180.501 189.274 180.501C191.716 180.501 193.764 178.534 193.764 176.016C193.764 173.576 191.795 171.531 189.274 171.531C186.753 171.531 184.783 173.498 184.783 176.016Z" fill="#F8AEB0"/>
<path d="M218.106 146.195C218.106 148.634 220.154 150.68 222.596 150.68C225.038 150.68 227.086 148.634 227.086 146.195C227.086 143.755 225.038 141.71 222.596 141.71C220.075 141.71 218.106 143.755 218.106 146.195Z" fill="#F8AEB0"/>
<path d="M271.595 146.195C271.595 148.634 273.643 150.68 276.085 150.68C278.527 150.68 280.575 148.634 280.575 146.195C280.575 143.755 278.606 141.71 276.085 141.71C273.564 141.71 271.595 143.755 271.595 146.195Z" fill="#F8AEB0"/>
<path d="M248.198 162.246C248.198 164.685 250.246 166.731 252.689 166.731C255.131 166.731 257.179 164.685 257.179 162.246C257.179 159.807 255.131 157.761 252.689 157.761C250.168 157.761 248.198 159.728 248.198 162.246Z" fill="#F8AEB0"/>
<path d="M216.451 169.879C216.451 172.318 218.5 174.363 220.942 174.363C223.384 174.363 225.432 172.396 225.432 169.879C225.432 167.439 223.384 165.394 220.942 165.394C218.5 165.394 216.451 167.439 216.451 169.879Z" fill="#F8AEB0"/>
<path d="M298.064 159.649C298.064 162.088 300.112 164.134 302.554 164.134C304.996 164.134 307.044 162.167 307.044 159.649C307.044 157.21 304.996 155.164 302.554 155.164C300.112 155.164 298.064 157.21 298.064 159.649Z" fill="#F8AEB0"/>
<path d="M293.573 189.471C293.573 191.91 295.622 193.956 298.064 193.956C300.506 193.956 302.554 191.989 302.554 189.471C302.554 187.032 300.506 184.986 298.064 184.986C295.622 184.986 293.573 186.953 293.573 189.471Z" fill="#F8AEB0"/>
<path d="M344.857 222.439C344.857 224.878 346.826 226.924 349.347 226.924C351.789 226.924 353.837 224.957 353.837 222.439C353.837 220 351.868 217.954 349.347 217.954C346.905 217.954 344.857 219.921 344.857 222.439Z" fill="#F8AEB0"/>
<path d="M365.417 240.379C365.417 242.818 367.387 244.864 369.907 244.864C372.35 244.864 374.398 242.897 374.398 240.379C374.398 237.94 372.428 235.894 369.907 235.894C367.387 235.894 365.417 237.861 365.417 240.379Z" fill="#F8AEB0"/>
<path d="M362.503 269.177C362.503 271.617 364.551 273.662 366.993 273.662C369.435 273.662 371.483 271.617 371.483 269.177C371.483 266.738 369.435 264.693 366.993 264.693C364.551 264.693 362.503 266.738 362.503 269.177Z" fill="#F8AEB0"/>
<path d="M351.947 291.917C351.947 294.356 353.995 296.402 356.437 296.402C358.879 296.402 360.927 294.435 360.927 291.917C360.927 289.478 358.879 287.432 356.437 287.432C353.916 287.432 351.947 289.478 351.947 291.917Z" fill="#F8AEB0"/>
<path d="M326.896 310.487C326.896 312.926 328.865 314.972 331.386 314.972C333.828 314.972 335.876 313.004 335.876 310.487C335.876 308.047 333.907 306.002 331.386 306.002C328.944 306.002 326.896 308.047 326.896 310.487Z" fill="#F8AEB0"/>
<path d="M324.69 240.379C324.69 242.818 326.659 244.864 329.18 244.864C331.622 244.864 333.67 242.897 333.67 240.379C333.67 237.94 331.701 235.894 329.18 235.894C326.659 235.894 324.69 237.861 324.69 240.379Z" fill="#F8AEB0"/>
<path d="M324.69 269.177C324.69 271.617 326.659 273.662 329.18 273.662C331.622 273.662 333.67 271.617 333.67 269.177C333.67 266.738 331.701 264.693 329.18 264.693C326.659 264.693 324.69 266.738 324.69 269.177Z" fill="#F8AEB0"/>
<path d="M289.083 280.744C289.083 283.183 291.131 285.229 293.573 285.229C296.015 285.229 298.064 283.262 298.064 280.744C298.064 278.305 296.094 276.259 293.573 276.259C291.131 276.259 289.083 278.226 289.083 280.744Z" fill="#F8AEB0"/>
<path d="M280.575 260.207C280.575 262.647 282.624 264.692 285.066 264.692C287.508 264.692 289.556 262.725 289.556 260.207C289.556 257.768 287.508 255.722 285.066 255.722C282.545 255.722 280.575 257.768 280.575 260.207Z" fill="#F8AEB0"/>
<path d="M289.083 224.8C289.083 227.239 291.131 229.285 293.573 229.285C296.015 229.285 298.064 227.239 298.064 224.8C298.064 222.36 296.094 220.315 293.573 220.315C291.131 220.315 289.083 222.36 289.083 224.8Z" fill="#F8AEB0"/>
<path d="M262.614 189.471C262.614 191.91 264.584 193.956 267.105 193.956C269.547 193.956 271.595 191.989 271.595 189.471C271.595 187.032 269.625 184.986 267.105 184.986C264.584 184.986 262.614 186.953 262.614 189.471Z" fill="#F8AEB0"/>
<path d="M236.539 191.674C236.539 194.113 238.588 196.159 241.03 196.159C243.472 196.159 245.52 194.192 245.52 191.674C245.52 189.234 243.55 187.189 241.03 187.189C238.509 187.189 236.539 189.234 236.539 191.674Z" fill="#F8AEB0"/>
<path d="M254.579 224.8C254.579 227.239 256.549 229.285 259.069 229.285C261.511 229.285 263.56 227.239 263.56 224.8C263.56 222.36 261.59 220.315 259.069 220.315C256.549 220.315 254.579 222.36 254.579 224.8Z" fill="#F8AEB0"/>
<path d="M254.579 290.186C254.579 292.625 256.549 294.671 259.069 294.671C261.511 294.671 263.56 292.704 263.56 290.186C263.56 287.747 261.59 285.701 259.069 285.701C256.549 285.701 254.579 287.668 254.579 290.186Z" fill="#F8AEB0"/>
<path d="M276.085 323.155C276.085 325.594 278.133 327.639 280.575 327.639C283.017 327.639 285.065 325.672 285.065 323.155C285.065 320.715 283.017 318.67 280.575 318.67C278.054 318.67 276.085 320.637 276.085 323.155Z" fill="#F8AEB0"/>
<path d="M243.708 312.926C243.708 315.365 245.756 317.411 248.198 317.411C250.64 317.411 252.688 315.444 252.688 312.926C252.688 310.487 250.64 308.441 248.198 308.441C245.677 308.441 243.708 310.408 243.708 312.926Z" fill="#F8AEB0"/>
<path d="M233.703 269.177C233.703 271.617 235.752 273.662 238.194 273.662C240.636 273.662 242.684 271.617 242.684 269.177C242.684 266.738 240.636 264.693 238.194 264.693C235.752 264.693 233.703 266.738 233.703 269.177Z" fill="#F8AEB0"/>
<path d="M220.942 220.315C220.942 222.754 222.99 224.8 225.432 224.8C227.874 224.8 229.922 222.833 229.922 220.315C229.922 217.875 227.874 215.83 225.432 215.83C222.99 215.83 220.942 217.875 220.942 220.315Z" fill="#F8AEB0"/>
<path d="M201.09 196.159C201.09 198.598 203.138 200.644 205.58 200.644C208.022 200.644 210.071 198.677 210.071 196.159C210.071 193.719 208.101 191.674 205.58 191.674C203.138 191.674 201.09 193.719 201.09 196.159Z" fill="#F8AEB0"/>
<path d="M163.593 206.388C163.593 208.827 165.641 210.873 168.083 210.873C170.525 210.873 172.573 208.827 172.573 206.388C172.573 203.948 170.525 201.903 168.083 201.903C165.562 201.903 163.593 203.948 163.593 206.388Z" fill="#F8AEB0"/>
<path d="M182.972 244.864C182.972 247.303 184.941 249.349 187.462 249.349C189.904 249.349 191.952 247.303 191.952 244.864C191.952 242.425 189.983 240.379 187.462 240.379C184.941 240.379 182.972 242.346 182.972 244.864Z" fill="#F8AEB0"/>
<path d="M191.007 273.663C191.007 276.102 193.055 278.147 195.497 278.147C197.939 278.147 199.987 276.18 199.987 273.663C199.987 271.223 197.939 269.178 195.497 269.178C192.976 269.178 191.007 271.223 191.007 273.663Z" fill="#F8AEB0"/>
<path d="M203.138 307.26C203.138 309.699 205.108 311.745 207.629 311.745C210.071 311.745 212.119 309.778 212.119 307.26C212.119 304.821 210.149 302.775 207.629 302.775C205.186 302.775 203.138 304.821 203.138 307.26Z" fill="#F8AEB0"/>
<path d="M198.175 328.977C200.066 330.551 202.902 330.315 204.477 328.505C206.053 326.617 205.817 323.784 204.005 322.211C202.114 320.637 199.278 320.873 197.703 322.683C196.048 324.492 196.285 327.325 198.175 328.977Z" fill="#F8AEB0"/>
<path d="M165.641 301.674C167.531 303.247 170.367 303.011 171.943 301.202C173.518 299.313 173.282 296.481 171.47 294.907C169.58 293.333 166.744 293.569 165.168 295.379C163.593 297.189 163.75 300.021 165.641 301.674Z" fill="#F8AEB0"/>
<path d="M157.133 272.639C159.024 274.213 161.86 273.977 163.435 272.167C165.011 270.279 164.774 267.446 162.962 265.873C161.072 264.299 158.236 264.535 156.66 266.345C155.006 268.154 155.242 270.987 157.133 272.639Z" fill="#F8AEB0"/>
<path d="M140.196 241.245C142.087 242.818 144.923 242.582 146.498 240.773C148.074 238.884 147.837 236.052 146.026 234.478C144.135 232.904 141.299 233.14 139.723 234.95C138.069 236.76 138.305 239.592 140.196 241.245Z" fill="#F8AEB0"/>
<path d="M108.449 216.853C110.34 218.426 113.176 218.19 114.751 216.381C116.327 214.492 116.091 211.66 114.279 210.086C112.388 208.512 109.552 208.748 107.977 210.558C106.322 212.447 106.559 215.279 108.449 216.853Z" fill="#F8AEB0"/>
<path d="M115.224 248.798C117.115 250.372 119.951 250.136 121.526 248.326C123.102 246.438 122.865 243.605 121.054 242.032C119.163 240.458 116.327 240.694 114.751 242.504C113.176 244.313 113.333 247.146 115.224 248.798Z" fill="#F8AEB0"/>
<path d="M125.15 281.059C127.04 282.632 129.876 282.396 131.452 280.587C133.027 278.698 132.791 275.866 130.979 274.292C129.089 272.718 126.253 272.954 124.677 274.764C123.023 276.652 123.259 279.485 125.15 281.059Z" fill="#F8AEB0"/>
<path d="M112.782 153.276C112.782 155.715 114.751 157.761 117.272 157.761C119.714 157.761 121.762 155.794 121.762 153.276C121.762 150.837 119.793 148.791 117.272 148.791C114.751 148.791 112.782 150.758 112.782 153.276Z" fill="#F8AEB0"/>
<path d="M205.58 112.596C205.58 115.036 207.629 117.081 210.071 117.081C212.513 117.081 214.561 115.114 214.561 112.596C214.561 110.157 212.513 108.112 210.071 108.112C207.629 108.112 205.58 110.079 205.58 112.596Z" fill="#F8AEB0"/>
<path d="M226.377 54.9211C226.377 57.3603 228.347 59.4061 230.868 59.4061C233.31 59.4061 235.358 57.3603 235.358 54.9211C235.358 52.4819 233.388 50.4362 230.868 50.4362C228.347 50.4362 226.377 52.4819 226.377 54.9211Z" fill="#F8AEB0"/>
<path d="M168.083 13.455C168.083 15.8942 170.052 17.94 172.573 17.94C175.015 17.94 177.063 15.9729 177.063 13.455C177.063 11.0158 175.094 8.97006 172.573 8.97006C170.052 8.97006 168.083 10.9372 168.083 13.455Z" fill="#F8AEB0"/>
<path d="M214.561 11.1729C214.561 13.6121 216.53 15.6579 219.051 15.6579C221.493 15.6579 223.541 13.6908 223.541 11.1729C223.541 8.73374 221.572 6.68796 219.051 6.68796C216.53 6.68796 214.561 8.73374 214.561 11.1729Z" fill="#F8AEB0"/>
<path d="M262.614 4.48498C262.614 6.92418 264.584 8.96996 267.105 8.96996C269.547 8.96996 271.595 7.00286 271.595 4.48498C271.595 2.04578 269.625 0 267.105 0C264.584 0 262.614 1.9671 262.614 4.48498Z" fill="#F8AEB0"/>
<path d="M306.178 13.455C306.178 15.8942 308.226 17.94 310.668 17.94C313.11 17.94 315.158 15.9729 315.158 13.455C315.158 11.0158 313.11 8.97006 310.668 8.97006C308.226 8.97006 306.178 10.9372 306.178 13.455Z" fill="#F8AEB0"/>
<path d="M235.358 22.4251C235.358 24.8643 237.406 26.9101 239.848 26.9101C242.29 26.9101 244.338 24.943 244.338 22.4251C244.338 19.9859 242.29 17.9401 239.848 17.9401C237.327 17.9401 235.358 19.9072 235.358 22.4251Z" fill="#F8AEB0"/>
</g>
<path d="M103.785 57.0288C61.7044 57.87 -8.90579 56.2524 0.928197 190.016C4.92663 244.453 16.7274 309.135 148.568 351.149C211.376 371.163 283.888 398.253 398.502 267.271C424.87 237.141 486.144 165.774 398.502 107.239C375.895 92.1412 371.162 84.463 290.674 92.896C261.864 95.9155 232.146 101.006 176.211 74.6928C159.353 66.7559 136.983 56.3818 103.785 57.0288Z" fill="#F48BA9"/>
<defs>
<clipPath id="clip0">
<rect width="327" height="330" fill="white" transform="translate(73)"/>
</clipPath>
</defs>
</svg>
