<?xml version="1.0" encoding="utf-8"?>
<!-- Generator: Adobe Illustrator 23.0.6, SVG Export Plug-In . SVG Version: 6.00 Build 0)  -->
<svg version="1.1" id="Layer_1" xmlns="http://www.w3.org/2000/svg" xmlns:xlink="http://www.w3.org/1999/xlink" x="0px" y="0px"
	 viewBox="0 0 722 723" style="enable-background:new 0 0 722 723;" xml:space="preserve">
<style type="text/css">
	.st0{fill:#F7A8B5;}
	.st1{fill:#FAC2C3;}
	.st2{fill:#F48BA9;}
	.st3{fill:none;stroke:#FFFFFF;stroke-width:2;stroke-linecap:round;stroke-linejoin:round;stroke-miterlimit:10;}
	.st4{fill:none;stroke:#FFFFFF;stroke-width:2;stroke-linecap:round;stroke-miterlimit:10;}
	.st5{fill:none;stroke:#FFFFFF;stroke-width:2;stroke-miterlimit:10;}
</style>
<rect class="st0" width="722" height="723"/>
<path class="st1" d="M325.82,250.58c-43.56,0.3-120.67-4.38-136.86,107.87c-7.72,53.6-23.36,134.87,111.85,185.46
	c39.8,14.89,95.32,26.64,167.79-26.96c32.45-24,90.39-59.8,88.84-134.82C556.06,315.55,557.75,249.01,325.82,250.58z"/>
<path class="st2" d="M381.76,243.34c44.56-11.85,156.26-33.33,144.11,115.11c-5.13,62.48-17.76,174.26-182.27,172.31
	c-51.08-0.6-131.48-4.68-140.15-148.64C200.02,325.73,197.1,292.4,381.76,243.34z"/>
<g>
	<path class="st3" d="M165,173.83c0,0,6.5,80.93,145.06,100.37c0,0-18.13-52.5-55.84-68.56C232.42,196.39,188.19,184.66,165,173.83z
		"/>
	<path class="st4" d="M166.6,175.43c0,0,29.51,39.82,80.17,63.3c52.76,26.07,52.56,26.57,63.26,35.5"/>
	<path class="st3" d="M341.39,291.13c0,0-36.91-44.83-44.33-67.24c-5.73-17.25-13.77-38.49-10.66-71.89
		C286.39,152,380.47,205.55,341.39,291.13z"/>
	<path class="st4" d="M324.23,227.08c0,0,20.95,29.86,17.16,61.9"/>
	<path class="st3" d="M381.36,268.58c0,0-30.24,31.77,13.38,119.99C394.74,388.57,425.3,328.47,381.36,268.58z"/>
	<path class="st3" d="M381.36,271.07l13.28,114.74"/>
	<path class="st3" d="M374.81,395.88c0,0-22.59-87.3-120.55-94.8C255,303.5,301.04,411.57,374.81,395.88z"/>
	<path class="st4" d="M255.78,302.23c0,0,42.19,50.32,93.99,71.61"/>
	<path class="st3" d="M390.48,431.33c0,0-15.64-28.45-51.03-25.74c-14.42,1.12-57.63,5.28-57.63,5.28S355.51,484.03,390.48,431.33z"
		/>
	<path class="st4" d="M389.42,431.13l-105.94-19.95"/>
	<path class="st3" d="M482.93,367.7c0,0-79.73,20.84-61.37,110.93c0,0,39.28-22.3,46.62-49.09
		C472.42,414.21,478.95,372.88,482.93,367.7z"/>
	<path class="st4" d="M481.22,369.1l-59.23,108.02"/>
	<path class="st3" d="M365.22,473.13c0,0,30.04-1.79,50.24,50.81C415.46,523.94,372.85,526.6,365.22,473.13z"/>
	<path class="st4" d="M414.09,522.95l-47.8-48.96"/>
	<path class="st3" d="M507.04,462.67c0,0-47.3,23.18-56.29,41.94c-4.78,9.98-11.26,21.88-5.7,43.86
		C445.05,548.48,520.07,513.96,507.04,462.67z"/>
	<path class="st4" d="M506.49,463.71c0,0-25.25,48.7-47.87,64.33"/>
	<path class="st5" d="M310.06,274.2c0,0,144.13,170.52,121.14,320.01"/>
	<path class="st5" d="M341.39,291.13l1.07,26.09"/>
	<path class="st5" d="M374.81,395.88l17.11,7.02"/>
	<path class="st5" d="M394.74,388.57l-1.27,17.6"/>
	<path class="st5" d="M409.63,443.8c0,0-8.14-10.53-19.13-12.47"/>
	<path class="st5" d="M415.46,523.94c0,0,14.77,10.75,16.99,10.8"/>
	<path class="st5" d="M445.05,548.48l-11.31,10.46"/>
</g>
</svg>
