<svg width="23" height="24" viewBox="0 0 23 24" fill="none" xmlns="http://www.w3.org/2000/svg">
<path d="M20.074 11.4946C20.0849 11.4946 20.0849 11.4946 20.0957 11.4946C20.0957 10.7 20.1066 9.89446 20.0957 9.09986C20.0849 8.44676 20.0524 7.79366 19.9873 7.14056C19.9222 6.43303 19.7162 5.76905 19.3476 5.15949C18.5778 3.85329 17.396 3.16753 15.9323 2.93895C15.26 2.8301 14.577 2.81921 13.8939 2.81921C12.4844 2.80833 11.0749 2.80833 9.66537 2.80833C8.81966 2.80833 7.96312 2.81921 7.11741 2.91718C6.45603 2.99337 5.81633 3.17842 5.23084 3.50497C3.91891 4.24515 3.19247 5.39896 2.9431 6.86843C2.83468 7.51065 2.80215 8.15286 2.80215 8.80596C2.80215 10.787 2.80215 12.7572 2.82383 14.7383C2.82383 15.337 2.88889 15.9356 3.02984 16.5234C3.34427 17.7861 4.02734 18.7875 5.16578 19.4406C5.96812 19.9087 6.85719 20.0937 7.77879 20.1372C8.5486 20.1699 9.31841 20.1808 10.0882 20.1808C11.5953 20.1808 13.1024 20.1699 14.5986 20.159C15.195 20.159 15.7913 20.1155 16.3876 19.974C18.1224 19.5603 19.2717 18.5154 19.8138 16.7956C20.0307 16.1098 20.0849 15.3914 20.0957 14.6839C20.0849 13.6062 20.074 12.5504 20.074 11.4946ZM22.9039 11.5163C22.9039 13.6716 22.9147 15.8268 22.9039 17.982C22.8931 20.3985 21.1041 22.5102 18.7296 22.9238C18.4585 22.9673 18.1766 23 17.9056 23C13.6011 23 9.29673 23.0109 4.99231 23C2.59614 22.9891 0.492725 21.1931 0.0807151 18.8093C0.0265032 18.5263 0.00481883 18.2324 0.00481883 17.9385C0.00481883 13.628 -0.00602354 9.32844 0.00481883 5.01798C0.00481883 2.60151 1.80465 0.489825 4.17913 0.076195C4.45019 0.032655 4.74293 0 5.01399 0C9.31841 0 13.6228 0 17.9272 0C20.3126 0.010885 22.4377 1.82868 22.8172 4.19072C22.8714 4.51727 22.9039 4.85471 22.9039 5.18126C22.9147 7.29295 22.9147 9.40464 22.9039 11.5163Z" fill="white"/>
<path d="M17.0924 6.85755C17.0924 6.28065 16.637 5.81259 16.0624 5.81259C15.4877 5.81259 15.0106 6.28065 15.0106 6.85755C15.0106 7.43446 15.4769 7.90251 16.0515 7.90251C16.6262 7.90251 17.0924 7.43446 17.0924 6.85755ZM15.8889 11.4946C15.8889 9.02367 13.9047 7.03171 11.4435 7.03171C8.99313 7.03171 6.99813 9.02367 6.99813 11.4837C6.99813 13.9546 8.98229 15.9574 11.4435 15.9465C13.9047 15.9465 15.8889 13.9546 15.8889 11.4946ZM4.32007 11.4837C4.33091 10.4931 4.34175 9.50261 4.35259 8.51207C4.36344 7.94605 4.38512 7.36915 4.52607 6.81401C4.86219 5.50781 5.69705 4.74586 6.99813 4.51728C7.46436 4.4302 7.94142 4.39754 8.41848 4.38666C9.77378 4.36489 11.1074 4.354 12.4518 4.354C13.2759 4.354 14.089 4.37577 14.9131 4.39754C15.4552 4.40843 15.9973 4.48462 16.5069 4.68055C17.4719 5.05064 18.0682 5.75817 18.3392 6.7487C18.4477 7.14056 18.5019 7.54331 18.5019 7.95694C18.5236 9.32845 18.5453 10.6891 18.5453 12.0497C18.5453 12.8552 18.5344 13.6607 18.5236 14.4662C18.5127 15.0431 18.491 15.6091 18.3501 16.1751C18.014 17.4704 17.1791 18.2324 15.878 18.461C15.401 18.548 14.9022 18.5807 14.4143 18.5916C12.9072 18.6134 11.4001 18.6242 9.90389 18.6134C9.15577 18.6134 8.40764 18.5807 7.64867 18.548C7.08487 18.5263 6.53191 18.4065 6.03316 18.1344C5.21999 17.7099 4.74292 17.0133 4.52607 16.1207C4.39596 15.5764 4.37428 15.0104 4.36344 14.4553C4.34175 13.4756 4.33091 12.4742 4.32007 11.4837Z" fill="white"/>
<path d="M14.3384 11.4945C14.3276 13.1164 13.0265 14.4117 11.4218 14.4008C9.82802 14.3899 8.53778 13.0728 8.54862 11.451C8.55946 9.86175 9.87139 8.57732 11.4761 8.5882C13.0482 8.5882 14.3493 9.90529 14.3384 11.4945Z" fill="white"/>
</svg>
