<?xml version="1.0" standalone="no"?>
<!DOCTYPE svg PUBLIC "-//W3C//DTD SVG 20010904//EN"
 "http://www.w3.org/TR/2001/REC-SVG-20010904/DTD/svg10.dtd">
<svg version="1.0" xmlns="http://www.w3.org/2000/svg"
 width="500.000000pt" height="500.000000pt" viewBox="0 0 500.000000 500.000000"
 preserveAspectRatio="xMidYMid meet">
<metadata>
Created by potrace 1.11, written by Peter Selinger 2001-2013
</metadata>
<g transform="translate(0.000000,500.000000) scale(0.100000,-0.100000)"
fill="#000000" stroke="none">
<path d="M3879 4796 c-2 -2 -26 -6 -54 -9 -239 -26 -542 -170 -805 -382 -78
-63 -320 -299 -380 -370 -198 -235 -334 -423 -494 -680 l-68 -110 -126 -1
c-159 -1 -373 -15 -452 -29 -14 -2 -45 -7 -70 -10 -84 -12 -235 -47 -325 -77
-190 -63 -332 -164 -390 -278 -53 -105 -39 -294 29 -383 66 -87 210 -157 324
-157 187 0 301 125 362 397 15 64 58 132 101 157 63 37 196 51 299 32 14 -2
28 -5 32 -5 3 -1 -16 -40 -44 -88 -142 -246 -346 -669 -448 -930 -28 -70 -55
-137 -60 -148 -48 -103 -148 -469 -179 -650 -24 -141 -22 -390 3 -480 51 -180
153 -294 316 -354 78 -28 108 -32 263 -37 106 -3 137 -1 137 8 0 116 10 568
13 583 2 11 8 61 12 110 4 50 8 97 10 105 1 8 6 44 10 80 12 98 11 92 31 210
4 25 8 47 9 50 2 7 17 92 21 115 37 216 166 650 273 920 47 117 229 505 238
505 2 0 45 -9 96 -20 50 -10 103 -21 117 -24 14 -2 88 -18 165 -35 77 -16 152
-32 168 -35 15 -2 35 -7 45 -9 9 -3 30 -8 45 -11 34 -8 35 -5 -13 -236 -17
-85 -33 -164 -35 -175 -5 -35 -74 -380 -84 -426 -5 -24 -13 -60 -16 -79 -3
-19 -8 -42 -10 -50 -2 -8 -7 -31 -10 -50 -3 -19 -26 -136 -51 -260 -24 -124
-47 -238 -50 -255 -3 -16 -20 -106 -39 -200 -19 -93 -33 -170 -32 -171 3 -3
237 -20 402 -29 223 -12 302 -16 327 -20 19 -2 29 2 32 13 6 23 25 111 30 142
2 14 30 149 60 300 31 151 58 284 60 295 3 11 19 90 36 175 18 85 54 263 80
395 27 132 74 364 105 515 31 151 59 286 61 300 8 42 94 462 104 510 5 25 12
56 14 70 3 14 21 104 41 200 19 96 37 184 39 195 15 75 156 767 161 788 8 31
-3 38 -106 67 -67 19 -316 39 -330 26z m-394 -456 c-3 -5 -8 -18 -10 -27 -2
-10 -17 -79 -35 -153 -37 -155 -38 -162 -45 -192 -2 -13 -27 -120 -55 -238
-28 -118 -77 -329 -109 -468 -33 -140 -61 -256 -63 -258 -3 -2 -18 0 -34 5
-16 5 -128 39 -249 76 -121 37 -235 72 -253 77 -38 11 -38 19 15 143 52 121
168 337 215 400 4 6 42 57 85 115 43 58 91 121 108 140 67 79 265 270 339 328
73 57 106 76 91 52z"/>
</g>
</svg>
